<?xml version="1.0" encoding="UTF-8" standalone="no"?>
<!DOCTYPE svg PUBLIC "-//W3C//DTD SVG 1.1//EN" "http://www.w3.org/Graphics/SVG/1.1/DTD/svg11.dtd">
<svg width="100%" height="100%" viewBox="0 0 129 128" version="1.1" xmlns="http://www.w3.org/2000/svg" xmlns:xlink="http://www.w3.org/1999/xlink" xml:space="preserve" xmlns:serif="http://www.serif.com/" style="fill-rule:evenodd;clip-rule:evenodd;stroke-linejoin:round;stroke-miterlimit:2;">
    <g transform="matrix(1,0,0,1,-1308,-128)">
        <g id="icon" transform="matrix(0.583042,0,0,0.730013,1308.4,-131.299)">
            <rect x="0" y="355.198" width="219.538" height="175.339" style="fill:none;"/>
            <g transform="matrix(-0.863819,0,0,-0.684538,931.547,530.489)">
                <path d="M1078.4,38.4L1078.4,217.6C1078.4,238.794 1061.33,256 1040.3,256L862.499,256C841.471,256 824.398,238.794 824.398,217.6L824.398,38.4C824.398,17.206 841.471,0 862.499,0L1040.3,0C1061.33,0 1078.4,17.206 1078.4,38.4Z" style="fill:url(#_Linear1);"/>
            </g>
            <g transform="matrix(0.780402,0,0,0.780402,24.044,97.3084)">
                <g transform="matrix(0.439432,0,0,0.350962,-0.0887191,355.032)">
                    <path d="M475,363C475,372 470,380 462,385L264,496C260,499 255,500 250,500C245,500 240,499 236,496L38,385C30,380 25,372 25,363L25,138C25,128 30,120 38,116L236,5C244.548,-1.481 256.452,-1.481 265,5L462,116C470,120 475,128 475,138L475,363Z" style="fill:url(#_Linear2);fill-rule:nonzero;"/>
                </g>
                <g transform="matrix(0.439432,0,0,0.350962,-0.0887191,355.032)">
                    <path d="M246,150C246,134 233,120 216,120L155,120C139,120 125,134 125,150L125,211C125,228 139,241 155,241L216,241C233,241 246,228 246,211L246,150Z" style="fill:rgb(83,82,81);"/>
                </g>
                <g transform="matrix(0.439432,0,0,0.350962,-0.0887191,355.032)">
                    <path d="M385,150C385,134 371,120 355,120L294,120C277,120 264,134 264,150L264,350C264,366 277,380 294,380L355,380C371,380 385,366 385,350L385,150Z" style="fill:rgb(11,10,9);"/>
                </g>
                <g transform="matrix(0.439432,0,0,0.350962,-0.0887191,355.032)">
                    <path d="M246,289C246,272 233,259 216,259L155,259C139,259 125,272 125,289L125,350C125,366 139,380 155,380L216,380C233,380 246,366 246,350L246,289Z" style="fill:rgb(48,47,45);"/>
                </g>
            </g>
        </g>
    </g>
    <defs>
        <linearGradient id="_Linear1" x1="0" y1="0" x2="1" y2="0" gradientUnits="userSpaceOnUse" gradientTransform="matrix(252.029,255.964,-253.972,254.007,824.398,0)"><stop offset="0" style="stop-color:rgb(18,15,14);stop-opacity:1"/><stop offset="1" style="stop-color:rgb(41,37,36);stop-opacity:1"/></linearGradient>
        <linearGradient id="_Linear2" x1="0" y1="0" x2="1" y2="0" gradientUnits="userSpaceOnUse" gradientTransform="matrix(499.567,499.567,-499.567,499.567,0,0)"><stop offset="0" style="stop-color:rgb(250,249,246);stop-opacity:1"/><stop offset="0.6" style="stop-color:rgb(234,232,229);stop-opacity:1"/><stop offset="1" style="stop-color:rgb(168,162,158);stop-opacity:1"/></linearGradient>
    </defs>
</svg>
